<svg width="85" height="79" viewBox="0 0 85 79" fill="none" xmlns="http://www.w3.org/2000/svg">
<path d="M17 52.0543V25.75L39.6187 12L64 25.75V52.0543L39.6187 67L17 52.0543Z" stroke="white" stroke-width="9" stroke-linejoin="round"/>
<path d="M69.5 52.0547C69.4999 53.635 68.6704 55.0998 67.3154 55.9131L42.416 70.8584C40.9439 71.742 39.0968 71.711 37.6553 70.7783L14.5557 55.832C13.2742 55.0029 12.5001 53.581 12.5 52.0547V25.75C12.5 24.1637 13.3351 22.6942 14.6982 21.8828L37.7979 8.13281L38.0596 7.98926C39.3837 7.31536 40.9635 7.33614 42.2754 8.06055L67.1758 21.8105C68.6098 22.6026 69.5 24.1117 69.5 25.75V52.0547Z" stroke="#32C5FE" stroke-width="9" stroke-linejoin="round"/>
<path d="M71 53.8809C70.9999 54.9344 70.4473 55.911 69.5439 56.4531L41.0127 73.5723C40.0315 74.161 38.8007 74.14 37.8398 73.5186L11.3711 56.3994C10.5166 55.8467 10.0001 54.8985 10 53.8809V23.75C10 22.6923 10.5569 21.7127 11.4658 21.1719L37.9346 5.42188L38.1084 5.32617C38.991 4.87694 40.0444 4.89127 40.9189 5.37402L69.4502 21.124C70.4063 21.652 71 22.6578 71 23.75V53.8809Z" stroke="#153D63" stroke-width="6" stroke-linejoin="round"/>
<path d="M21 27.9259L40.1579 16L60 27.9259V49.7333L40.1579 62L21 50.7556V27.9259Z" fill="#475C6D"/>
<path d="M21 27.9259L40.1579 16L60 27.9259M21 27.9259L40.8421 39.5111M21 27.9259V50.7556L40.1579 62M60 27.9259L40.8421 39.5111M60 27.9259V49.7333L40.1579 62M40.8421 39.5111L40.1579 62" stroke="#1F2F3A" stroke-width="2" stroke-linejoin="round"/>
<path d="M50.7 65.9589L49 48L64.64 58.0822L59.88 61.2329L66 69.1096L62.94 71L56.48 63.1233L50.7 65.9589Z" fill="#F4BF22" stroke="#CF8D00" stroke-width="1.5" stroke-linejoin="round"/>
</svg>
